<?xml version="1.0" standalone="no"?><!DOCTYPE svg PUBLIC "-//W3C//DTD SVG 1.1//EN" "http://www.w3.org/Graphics/SVG/1.1/DTD/svg11.dtd"><svg t="1749112083566" class="icon" viewBox="0 0 1024 1024" version="1.1" xmlns="http://www.w3.org/2000/svg" p-id="8907" xmlns:xlink="http://www.w3.org/1999/xlink" width="200" height="200"><path d="M370.312997 869.829956c10.704881-15.751981 35.087223-28.598736 54.130596-28.598736h191.731424c19.070314 0 43.398773 12.846755 54.135086 28.598736l13.21496 19.339733c10.722842 15.787903 19.492403 40.965029 19.492403 56.003052 0 15.069455-15.59033 27.377374-34.638193 27.377374H372.234846c-19.034392 0-34.629212-12.303429-34.629212-27.377374 0-15.038023 8.778541-40.215149 19.501383-56.003052l13.20598-19.339733z" fill="#CCCCDE" p-id="8908"></path><path d="M388.880397 882.447706c6.555842-9.64517 23.839016-18.773954 35.563196-18.773955h191.731424c11.701728 0 28.998373 9.133275 35.581156 18.791916l13.228431 19.366675c8.76058 12.887168 15.581349 33.901783 15.58135 43.326928 0-0.080825 0.013471-0.14369 0.017961-0.157161-0.422088 1.400974-4.818095 5.083022-12.204642 5.083023H372.234846c-7.373077 0-11.773573-3.686538-12.195661-5.092003a0.808254 0.808254 0 0 1 0.017961 0.166141c0-9.429635 6.82526-30.43078 15.621762-43.380812l13.201489-19.330752z m-50.34527-5.895767c-13.331708 19.618131-23.381005 49.114928-23.381005 68.611821 0 27.476161 25.608195 49.828886 57.080724 49.828886h296.144427c31.48151 0 57.089705-22.352726 57.089705-49.828886 0-19.505874-10.044807-48.99818-23.372024-68.611821l-13.250883-19.384636c-14.903314-21.872263-46.151328-38.387596-72.671054-38.387595H424.443593c-26.555649 0-57.808154 16.524313-72.697997 38.432498l-13.210469 19.339733z" fill="#6E6E96" p-id="8909"></path><path d="M265.195017 1024v-39.402404c0-21.688161 26.227857-39.424855 58.279635-39.424855h393.372945c32.06974 0 58.279635 17.745675 58.279636 39.424855v39.402404" fill="#CCCCDE" p-id="8910"></path><path d="M287.646529 1024v-39.402404c0-5.981083 13.601126-16.973343 35.828123-16.973343h393.372945c22.226997 0 35.828123 10.99226 35.828123 16.973343v39.402404h44.903025v-39.402404c0-34.701057-35.459918-61.876368-80.731148-61.876367H323.474652c-45.271229 0-80.731148 27.184291-80.731147 61.876367v39.402404h44.903024z" fill="#6E6E96" p-id="8911"></path><path d="M575.209987 841.23122v103.93254h127.811969c-0.008981 0-11.72418-103.93254-127.811969-103.93254zM783.85189 991.324069l-19.609151 32.675931h-152.549044V945.16376h111.117024l27.072033 14.351007z" fill="#6E6E96" opacity=".15" p-id="8912"></path><path d="M512 436.125115m-413.673602 0a413.673602 413.673602 0 1 0 827.347204 0 413.673602 413.673602 0 1 0-827.347204 0Z" fill="#E4E4F2" p-id="8913"></path><path d="M507.509698 16.142637C279.04311 16.142637 93.836095 201.349652 93.836095 429.81624s185.207014 413.673602 413.673603 413.673602 413.673602-185.207014 413.673602-413.673602S735.976286 16.142637 507.509698 16.142637z m11.225756 818.37109C313.829483 834.513727 147.719724 668.399479 147.719724 463.493508c0-204.905971 166.109758-371.015729 371.01573-371.015729s371.015729 166.109758 371.015729 371.015729-166.109758 371.02022-371.015729 371.020219z" fill="#FFFFFF" opacity=".66" p-id="8914"></path><path d="M512 44.903024c215.718619 0 391.22209 175.49898 391.22209 391.222091 0 215.718619-175.503471 391.22209-391.22209 391.22209C296.27689 827.347205 120.77791 651.843734 120.77791 436.125115 120.77791 220.402005 296.27689 44.903024 512 44.903024zM75.874885 436.125115c0 240.482637 195.642477 436.125115 436.125115 436.125114 240.487128 0 436.125115-195.642477 436.125115-436.125114C948.125115 195.642477 752.487128 0 512 0 271.517363 0 75.874885 195.642477 75.874885 436.125115z" fill="#6E6E96" p-id="8915"></path><path d="M242.563893 434.023653c0 148.584108 120.878942 269.431617 269.427126 269.431617 148.552676 0 269.445088-120.892413 269.445088-269.431617 0-148.579617-120.887922-269.422637-269.445088-269.422637-148.570637 0-269.427127 120.843019-269.427126 269.422637z" fill="#ABD2FF" p-id="8916"></path><path d="M220.11238 434.023653c0 160.94591 130.937219 291.883129 291.878639 291.883129 160.954891 0 291.8966-130.937219 291.896601-291.883129 0-77.852864-30.399348-151.121129-85.594145-206.306945-55.181327-55.181327-128.449592-85.571694-206.297965-85.571694-160.94591 0.00449-291.883129 130.937219-291.88313 291.878639z m291.878639-246.971124c65.854776 0 127.852381 25.720452 174.556017 72.419597 46.703636 46.703636 72.437559 108.692261 72.437559 174.551527 0 136.181892-110.802703 246.980105-246.993576 246.980105-136.181892 0-246.975615-110.798213-246.975614-246.980105s110.793722-246.971124 246.975614-246.971124z" fill="#6E6E96" p-id="8917"></path><path d="M512.44454 342.502309c50.340781 0 91.148649 40.812359 91.148649 91.144159 0 50.33629-40.807869 91.184572-91.148649 91.184571-50.363232 0-91.171101-40.848281-91.171101-91.184571 0.00449-50.340781 40.816849-91.144159 91.171101-91.144159z" fill="#6E6E96" p-id="8918"></path><path d="M618.563857 51.023307c149.756077 50.174639 257.716418 191.511399 257.716419 358.159993 0 208.623942-169.127241 377.751183-377.751183 377.751183C289.900661 786.934483 120.77791 617.807241 120.77791 409.1833 120.77791 301.501357 165.90994 204.416528 238.199319 135.607134 149.825676 211.475284 93.836095 323.988792 93.836095 449.596022c0 228.466588 185.207014 413.673602 413.673603 413.673602s413.673602-185.207014 413.673602-413.673602c0-189.993677-128.081387-350.046017-302.619443-398.572715z" fill="#6E6E96" opacity=".15" p-id="8919"></path><path d="M507.500717 173.581621c-148.570637 0-269.427127 120.843019-269.427127 269.422637s120.878942 269.431617 269.427127 269.431617c148.552676 0 269.445088-120.892413 269.445088-269.431617 0-148.584108-120.887922-269.422637-269.445088-269.422637z m11.315562 528.275102c-122.603218 0-222.364267-99.738598-222.364267-222.364267s99.743088-222.359777 222.364267-222.359777c122.607708 0 222.368757 99.729617 222.368757 222.359777 0 122.585257-99.77452 222.364267-222.368757 222.364267z" fill="#6E6E96" opacity=".15" p-id="8920"></path><path d="M587.782834 592.823199c0 22.321293-34.552877 40.412722-77.179318 40.412722-52.671248 0-77.179318-18.086938-77.179318-40.412722s34.557368-22.451512 77.179318-22.451512c42.626441 0 77.179318 0.134709 77.179318 22.451512z" fill="#FFFFFF" opacity=".46" p-id="8921"></path></svg>