<svg width="256" height="256"
     xmlns="http://www.w3.org/2000/svg" version="1.1">
    <style>path {fill-opacity:1; stroke:none;}</style>
    <path d="M 244.7593,212.835L 244.1732,213.8435L 243.5419,214.7972L 242.1835,216.595L 241.4045,217.3881L 239.745,218.8789L 237.883,220.1826L 236.8439,220.7386L 234.6439,221.7521L 232.1887,222.5754L 229.4355,223.2146L 226.3086,223.6541L 222.7813,223.8906L 218.957,223.9785L 214.9961,223.998L 211,224L 45,224L 41.0039,223.998L 37.043,223.9785L 33.2188,223.8906L 29.6914,223.6543L 28.1279,223.436L 25.1875,222.9043L 23.8833,222.5476L 21.4058,221.7444L 19.1685,220.7576L 18.1582,220.1724L 16.2432,218.9048L 15.3806,218.1552L 13.7279,216.4976L 12.2233,214.5041L 11.5684,213.3469L 10.3889,210.9181L 9.4692,208.2915L 8.7939,205.459L 8.5703,203.9006L 8.23,200.6594L 8.1594,198.9576L 8.1167,195.5576L 8.3149,192.2607L 8.897,189.2998L 10.0723,186.9434L 11.9912,185.3398L 14.5732,184.3652L 16,184L 16,150L 16.002,146.0039L 16.0127,144.0234L 16.0781,140.1348L 16.3047,136.498L 16.8525,133.3398L 17.8408,130.8184L 19.2266,128.8633L 20,128L 20,125L 20,122L 20,120L 19.2383,119.1377L 17.9189,117.2725L 17.1572,115.1216L 17.1572,112.8247L 17.9189,110.6792L 19.2383,108.8413L 20,108L 20,107L 20,104L 20,100L 18.4531,98.2324L 17.2285,96.043L 16.4766,93.2041L 16.1328,89.7656L 16.0234,85.9561L 16.002,81.9961L 16,78L 16,63L 16.002,59.0039L 16.0234,55.043L 16.1309,51.2227L 16.292,49.4746L 16.5332,47.8477L 16.8511,46.3433L 17.6265,43.564L 18.1426,42.3799L 19.2911,40.1711L 20.6748,38.2576L 21.4819,37.4368L 22.3408,36.6771L 24.1679,35.2648L 26.2576,34.0596L 28.737,33.0952L 31.7311,32.4512L 35.2227,32.1309L 39.043,32.0234L 43.0039,32.002L 47,32L 209,32L 212.9961,32.002L 216.957,32.0234L 220.7773,32.1309L 222.5254,32.292L 224.1523,32.5332L 225.6567,32.8511L 228.436,33.6265L 230.8042,34.6587L 231.8298,35.2909L 232.792,35.9821L 233.6947,36.7308L 235.3879,38.3377L 236.8599,40.1645L 238.0908,42.2554L 239.0193,44.7362L 239.6021,47.731L 239.8828,51.2227L 239.978,55.043L 239.998,59.0039L 240,63L 240,184L 242.7715,184.8184L 245.0703,186.0635L 246.6387,188.0342L 247.0693,189.4058L 247.6807,192.4087L 247.8994,195.7529L 247.8887,197.4509L 247.7656,200.7844L 247.6023,202.3634L 247.1768,205.3916L 246.879,206.7839L 246.178,209.4097L 245.267,211.739ZM 0,0L 0,256L 256,256L 256,0Z" style="fill:rgb(254,254,254);"/>
    <path d="M 40,168L 48,168L 48,116L 40,116Z" style="fill:rgb(110,161,236);"/>
    <path d="M 177,65L 179,65L 180.5078,64.7539L 183.6875,64.3438L 187.2188,64.1094L 191.043,64.0215L 195.0039,64.002L 199,64L 216,64L 216,56L 132,56L 132,64L 142,64L 145.9961,64.002L 149.957,64.0215L 153.7813,64.1094L 157.3125,64.3438L 160.4922,64.7539L 162,65L 163,65L 165.4297,64.8594L 167.8184,64.9131L 169,65L 171,65L 173.4297,64.8594L 175.8184,64.9131Z" style="fill:rgb(110,161,236);"/>
    <path d="M 248,186L 247,185L 246,184L 244.6875,183.3125L 242.4141,181.5859L 240.9492,179.0508L 240.2656,175.7344L 240.0469,171.9531L 240.0039,167.9961L 240,164L 240,43L 239,41L 237.666,39L 237,38L 236,37L 235,36L 234,35L 233,34.4297L 231,33.248L 229,32L 27,32L 26,32.624L 24,33.8389L 22,35L 21,36L 20,37L 19,38L 18.4297,39L 17.248,41L 16,43L 16,98L 17,99L 18,100L 22,100L 23,99L 24,98L 24,65L 24.002,61.0039L 24.0117,59.0234L 24.0391,57.0781L 24.0967,55.1914L 24.3013,51.5811L 24.5222,49.978L 24.8289,48.5054L 25.6313,45.8301L 26.8456,43.7001L 28.5483,42.1104L 30.8336,41.0325L 33.7542,40.4063L 37.2261,40.1178L 41.0432,40.022L 45.0039,40.002L 49,40L 207,40L 210.9961,40.002L 212.9766,40.0117L 214.9219,40.0391L 216.8086,40.0967L 220.4189,40.3013L 222.022,40.5222L 223.4946,40.8289L 226.1699,41.6313L 228.2999,42.8456L 229.8896,44.5483L 230.9675,46.8336L 231.5938,49.7542L 231.8822,53.2261L 231.978,57.0432L 231.998,61.0039L 232,65L 232,133L 232.2461,134.5078L 232.6563,137.6875L 232.8906,141.2188L 232.9702,144.8423L 232.8989,148.0015L 232.5767,150.5972L 232,153L 232,164L 231.9961,167.9961L 231.9531,171.9531L 231.7344,175.7344L 231.0469,179.0469L 229.5391,181.5391L 227.0469,183.0469L 223.7344,183.7344L 219.9531,183.9531L 215.9961,183.9961L 212,184L 44,184L 40.0039,183.9961L 36.0469,183.9531L 32.2656,183.7344L 28.9531,183.0469L 26.4609,181.5391L 24.9531,179.0469L 24.2656,175.7344L 24.0469,171.9531L 24.0039,167.9961L 24,164L 24,133L 16,133L 16,164L 15.9961,167.9961L 15.9531,171.9531L 15.7344,175.7344L 15.0508,179.0508L 13.5859,181.5859L 11.3125,183.3125L 10,184L 9,185L 8,186L 8,207L 8.334,208.332L 9,211L 10,214L 10.7656,215L 12.2656,217L 13,218L 14,219L 15,219.666L 17,221L 19,222L 21,223L 23.668,223.666L 25,224L 231,224L 232.332,223.666L 235,223L 237,222L 239,221L 241,219.666L 242,219L 243,218L 243.666,217L 245,215L 246,213L 247,211L 247.666,208.332L 248,207ZM 237.5027,194.4565L 238.2375,195.683L 239.2721,198.476L 239.4185,200.0777L 239.45,203.2352L 239.0248,206.1386L 238.6292,207.3628L 238.1493,208.4727L 237.5861,209.4812L 236.2961,211.3214L 234.677,212.8455L 232.6943,214.0889L 230.2536,215.0192L 227.2681,215.6021L 223.7773,215.8828L 219.957,215.978L 215.9961,215.998L 212,216L 44,216L 40.0039,215.998L 38.0234,215.9883L 34.1328,215.9336L 32.3047,215.8477L 30.5791,215.7095L 27.3555,215.3115L 25.978,214.9778L 23.4517,214.155L 22.4042,213.5845L 20.501,212.2832L 18.9631,210.66L 17.7656,208.6807L 16.9083,206.2507L 16.4185,203.313L 16.3774,200.0427L 16.9746,196.9102L 18.4629,194.457L 20.9531,192.9531L 24.2656,192.2656L 28.0469,192.0469L 32.0039,192.0039L 36,192L 64,192L 67.9961,192.0039L 71.9531,192.0469L 75.7344,192.2617L 79.0469,192.9141L 81.543,194.2773L 83.0938,196.3984L 84,199L 85,201L 86,203L 87,204L 88,205L 89,206L 91,207L 93,208L 163,208L 165,207L 167,206L 168,205L 169,204L 170,203L 171,201L 172,199L 172.9063,196.3984L 174.457,194.2773L 176.9531,192.9141L 180.2656,192.2617L 184.0469,192.0469L 188.0039,192.0039L 192,192L 220,192L 223.9961,192.0039L 227.9528,192.0469L 231.7314,192.2656L 235.0334,192.9529ZM 153.7646,199.8652L 149.9561,199.9766L 145.9961,199.998L 142,200L 114,200L 110.0039,199.998L 108.0234,199.9873L 104.1348,199.9219L 102.3174,199.8066L 98.9355,199.4014L 96.2051,198.5605L 95.3213,197.7656L 94.2813,195.9175L 94.8604,194.0449L 97.0322,192.8135L 100.2783,192.2417L 104.0479,192.0449L 108.0039,192.0039L 112,192L 144,192L 147.9961,192.0039L 151.9521,192.0449L 153.8403,192.1436L 157.3691,192.5303L 158.7749,193.0215L 160.967,194.3833L 161.307,195.8L 160.803,197.9502L 158.5767,199.0938L 155.4795,199.6846Z" style="fill:rgb(1,1,4);"/>
    <path d="M 24,110L 23,109L 22,108L 18,108L 17,109L 16,110L 16,118L 17,119L 18,120L 22,120L 23,119L 23.0488,117.5996L 23.3477,115.0742L 24,113Z" style="fill:rgb(1,1,4);"/>
    <path d="M 224,50L 223,49L 222,48L 34,48L 33,49L 32,50L 32,104L 40,104L 40,76L 40.0039,72.0039L 40.0469,68.0469L 40.2656,64.2656L 40.9531,60.9531L 42.4609,58.4609L 44.9531,56.9531L 48.2656,56.2656L 52.0469,56.0469L 56.0039,56.0039L 60,56L 104,56L 107.9961,56.0039L 111.9531,56.0469L 115.7344,56.2656L 119.0469,56.9531L 121.5391,58.4609L 123.0469,60.9531L 123.7344,64.2656L 123.9531,68.0469L 123.9961,72.0039L 124,76L 124,104L 132,104L 132,76L 132.0039,72.0039L 132.0469,68.0469L 132.2656,64.2656L 132.9531,60.9531L 134.4609,58.4609L 136.9531,56.9531L 140.2656,56.2656L 144.0469,56.0469L 148.0039,56.0039L 152,56L 196,56L 199.9961,56.0039L 203.9531,56.0469L 207.7344,56.2656L 211.0469,56.9531L 213.5391,58.4609L 215.0469,60.9531L 215.7344,64.2656L 215.9531,68.0469L 215.9961,72.0039L 216,76L 216,103L 217,104L 224,104Z" style="fill:rgb(1,1,4);"/>
    <path d="M 34,106L 33,106L 32,107L 32,113L 61,113L 61,107L 56,107L 54.4961,107.2441L 52.9258,107.4395L 49.6758,107.707L 46.3066,107.6963L 43.0254,107.374L 39.9434,106.7725L 37,106L 36,106Z" style="fill:rgb(1,1,4);"/>
    <path d="M 32,116L 32,122L 40,122L 40,116Z" style="fill:rgb(1,1,4);"/>
    <path d="M 32,125L 32,130L 40,130L 40,125Z" style="fill:rgb(1,1,4);"/>
    <path d="M 224,174L 224,117L 221,117L 221,133L 220.9961,136.9961L 220.9551,140.9531L 220.7559,144.7344L 220.1602,148.0508L 218.9297,150.5859L 217.0664,152.3125L 216,153L 215.9531,156.3281L 215.7344,159.7969L 215.0469,163.0469L 213.543,165.5352L 211.0938,167L 208,167.4727L 204.9063,167.0391L 202.4531,165.7188L 201.6797,164.6602L 200.459,162.3105L 199.6719,159.6777L 199,157L 198,155L 197,154L 196,153L 195,152L 192.353,151.6118L 190.2365,150.8109L 188.8585,149.3763L 188.5247,148.3661L 188.1013,145.9835L 188.0058,142.8055L 188,139L 188,136L 187.666,134.668L 187,132L 186,131L 185,131L 184,132L 183.8926,135.7852L 183.6563,139.3125L 183.4512,140.9023L 183.1666,142.3419L 182.6979,143.5024L 181.9063,144.1669L 180.0573,144.9157L 179,145L 177.8848,145.4348L 176.77,145.7718L 175.6711,145.9775L 173.5447,146.0809L 172.1581,145.5648L 171.1453,144.8964L 170.3929,144.0807L 169.3024,142.1988L 169.1215,141.0744L 169.097,139.9361L 169.2284,138.8238L 169.5156,137.7738L 169.9549,136.8189L 171.1158,135.1588L 172.3978,134.453L 173.7663,134.1904L 175.0214,134.2513L 177.2733,134.8658L 179.1351,136.2097L 180,137L 181,137L 181,126L 180,125L 177,124L 171,124L 168,125L 166,126L 165,127L 164,128L 163,129L 162,130L 161,132L 160,135L 159.9902,136.9805L 159.9424,138.9004L 159.6943,142.5215L 159.0088,145.541L 157.7324,147.7695L 155.9707,149.3398L 155,150L 154,151L 153,152L 152,153L 151,154L 150,155L 149,158L 148,161L 147.0938,163.6016L 145.5469,165.7188L 143.0938,167.0391L 140,167.4727L 136.9063,167L 134.457,165.5352L 132.9531,163.0469L 132.2656,159.7344L 132.0469,155.9531L 132,152L 131,151L 129,151L 127,151L 126,151L 124,152L 123.9531,155.9531L 123.7344,159.7344L 123.0469,163.0469L 121.543,165.5352L 119.0938,167L 116,167.4727L 112.9063,167.0391L 110.4531,165.7188L 108.9063,163.6016L 108.4531,162.3008L 107.5,159.5L 107,158L 106,155L 105,154L 104,153L 103,152L 101.0039,150.6621L 100.0474,149.9653L 98.2998,148.4585L 97.0146,146.5703L 96.3145,144.0234L 96.0591,140.7461L 96.0049,136.9688L 96,135L 95,132L 94,130L 93,129L 92,128L 91,127L 90,126L 88,125L 85,124L 79,124L 76,125L 74,126L 73,127L 72,128L 71,129L 70,130L 69,132L 68,135L 67.9946,136.9727L 67.9336,140.7734L 67.6362,144.1055L 66.7891,146.7031L 65.1807,148.5703L 63,150L 61,152L 60,153L 59,154L 58,155L 57,158L 56,161L 55.0938,163.6016L 53.5469,165.7188L 51.0938,167.0391L 48,167.4727L 44.9063,167L 42.457,165.5352L 40.9531,163.0469L 40.2656,159.7344L 40.0469,155.9531L 40.0039,151.9961L 40,148L 40,133L 32,133L 32,138L 32.334,139.332L 32.667,140.666L 33.2559,143.3184L 33.478,145.8276L 33.0234,148.0391L 32,150L 32,174L 33,175L 34,176L 222,176L 223,175ZM 87.0434,140.0359L 86.9136,141.1913L 86.6223,142.273L 86.174,143.2475L 84.988,144.9249L 83.6838,145.3123L 80.8156,145.3929L 79.5937,144.8203L 78.6766,144.0478L 77.3617,142.2043L 77.151,141.0773L 77.1117,139.9376L 77.2328,138.8237L 77.506,137.7689L 77.9238,136.8037L 78.6785,135.8134L 79.6934,135.0539L 81.935,134.1384L 84.1463,134.4243L 84.9685,135.0647L 85.6354,135.8749L 86.6566,137.7652ZM 184.125,157.0381L 185.3535,157.5298L 187.5547,158.7305L 189.2261,160.3469L 190.251,162.2808L 190.3647,164.2893L 189.2891,166.0166L 186.9795,167.1797L 183.7227,167.7578L 179.9521,167.9551L 175.9961,167.9961L 172.0039,167.9961L 170.0254,167.9746L 166.1582,167.8477L 164.3945,167.6406L 162.8096,167.3057L 160.0869,166.3545L 159.2339,165.6035L 158.5212,164.272L 158.2764,163.1044L 158.4474,160.9899L 159.6161,159.2539L 161.4049,157.8862L 163.7734,156.9386L 166.7371,156.3776L 170.2192,156.1143L 172.1096,156.0786L 174.0001,156.0784L 177.708,156.1606L 181.1455,156.4487ZM 91.7324,167.7578L 87.9531,167.9551L 83.9961,167.9961L 80.0039,167.9961L 76.0469,167.9551L 72.2676,167.7578L 70.6211,167.4688L 69.1973,167.0332L 68.0293,166.4526L 66.2339,165.0356L 65.9597,163.8826L 65.9786,161.5395L 66.9328,159.5231L 68.5652,158.0648L 70.8357,157.0239L 73.7543,156.4052L 75.459,156.2615L 78.9433,156.0718L 80.7119,156.0526L 82.4678,156.0628L 85.9287,156.1578L 89.2085,156.4485L 92.1416,157.0391L 94.6152,158.0283L 96.5918,159.457L 97.9775,161.2661L 98.5361,163.2661L 97.9883,165.1484L 96.2148,166.5977L 93.3779,167.4688Z" style="fill:rgb(1,1,4);"/>
    <path d="M 107,97L 106,95L 105,94L 104,93L 103,92L 102,91L 101,90L 99.0859,88.543L 97.5244,86.6699L 96.5483,84.085L 96.1245,80.7666L 96.0132,76.9717L 96,75L 95,72L 94,70L 93,69L 92,68L 91,67L 90,66L 88,65L 85,64L 79,64L 76,65L 74,66L 73,67L 72,68L 71,69L 70,70L 69,72L 68,75L 67.9902,76.9805L 67.9424,78.9004L 67.6943,82.5215L 67.0088,85.541L 65.7324,87.7695L 63.9707,89.3398L 63,90L 62,91L 61,92L 60,93L 59,94L 58,95L 57,97L 57,104L 61,104L 64,103L 65.2708,101.1479L 66.7163,99.4478L 68.512,98.0381L 70.8262,97.0176L 73.7532,96.4043L 75.4896,96.261L 79.1307,96.0718L 81.0557,96.0526L 82.9678,96.0627L 84.835,96.1103L 88.4226,96.3031L 90.0239,96.5232L 92.9674,97.1356L 95.3765,98.1194L 97.2673,99.4855L 98.7476,101.1589L 100,103L 101,104L 102,104L 105,104L 107,104ZM 83.9249,74.4277L 84.8351,75.0848L 85.5607,75.9022L 86.648,77.7929L 86.8418,78.9209L 86.8746,80.0611L 86.7495,81.1744L 86.4675,82.225L 86.0323,83.1803L 84.8781,84.8409L 82.6554,85.7911L 80.0694,85.572L 79.1538,84.9146L 78.4229,84.097L 77.3275,82.2059L 77.1337,81.0779L 77.1029,79.9378L 77.2313,78.8247L 77.5169,77.7742L 77.9556,76.8191L 79.1158,75.1588L 81.3418,74.2087Z" style="fill:rgb(1,1,4);"/>
    <path d="M 67,108L 67,116L 99,116L 99,108Z" style="fill:rgb(1,1,4);"/>
    <path d="M 107,106L 106,106L 105,107L 105,116L 108.2461,116.0029L 111.9531,116.0352L 115.7383,116.1963L 119.0938,116.6797L 121.8047,117.6465L 124,119L 126,119L 127,118L 128,117L 129,116L 129,115L 127.0039,114.9961L 125.0254,114.9756L 121.1602,114.8584L 119.4736,114.5815L 118.3281,114.0154L 119.1758,113.0941L 121.7588,112.0964L 123.5127,112.0728L 127.0317,112.1359L 130.4238,112.4766L 133.3184,113.2285L 135.4492,114.4531L 137,116L 144,116L 144,108L 140.2188,107.8711L 136.7266,107.5469L 133.6875,106.9023L 131,106L 130,106L 129,106L 128,106L 125.2988,106.6494L 122.4609,107.2266L 119.3535,107.6318L 116.0039,107.7598L 112.6836,107.5254L 109.6836,106.9004Z" style="fill:rgb(1,1,4);"/>
    <path d="M 126,127L 124,127L 124,134L 125.5313,134.2344L 128.5313,134.7344L 130,135L 131,135L 132,134L 132,130L 130.752,129.4297L 128.3223,128.248Z" style="fill:rgb(1,1,4);"/>
    <path d="M 124,137L 124,141L 127,142L 132,142L 132,138L 131,137Z" style="fill:rgb(1,1,4);"/>
    <path d="M 124,144L 124,148L 125,149L 132,149L 132,145L 129.332,144.334L 128,144Z" style="fill:rgb(1,1,4);"/>
    <path d="M 132,126L 132,120L 131,120L 130,121L 129,122L 128,123L 128,124L 129,124.666L 131,126Z" style="fill:rgb(1,1,4);"/>
    <path d="M 198,95L 197,94L 196,93L 195,92L 194,91L 193,90L 191.0859,88.543L 189.5244,86.6699L 188.5483,84.085L 188.1245,80.7666L 188.0132,76.9717L 188,75L 187,72L 186,70L 185,69L 184,68L 183,67L 182,66L 180,65L 177,64L 171,64L 168,65L 166,66L 165,67L 164,68L 163,69L 162,70L 161,72L 160,75L 159.9902,76.9805L 159.9424,78.9004L 159.6943,82.5215L 159.0088,85.541L 157.7324,87.7695L 155.9707,89.3398L 155,90L 154,91L 153,92L 152,93L 151,94L 150,95L 149,97L 149,104L 149.2461,105.5078L 149.6563,108.6875L 149.8926,112.2148L 150,116L 182,116L 184.748,115.8906L 186,116L 187,116L 188,115L 188,110L 187,108L 176,108L 172.0039,107.9961L 168.0469,107.9551L 164.2676,107.7578L 162.6211,107.4688L 161.1973,107.0332L 160.0293,106.4526L 158.2339,105.0356L 157.9597,103.8826L 157.9786,101.5395L 158.9328,99.5231L 160.5652,98.0648L 162.8357,97.0239L 165.7543,96.4052L 167.4902,96.2615L 171.1308,96.0718L 173.0557,96.0526L 174.9678,96.0628L 176.835,96.1103L 180.4226,96.3031L 182.0239,96.5232L 184.9674,97.1356L 186.1719,97.6275L 188.3214,98.8027L 190.001,100.3257L 191.3333,102.1029L 192.4655,104.0202L 193,105L 195,106L 196,106L 198,106L 199,106L 200,105L 200,101L 199,98ZM 169.1138,81.3407L 169.0977,80.1005L 169.231,78.924L 169.5179,77.834L 169.9565,76.8547L 171.116,75.1653L 173.3424,74.2095L 175.9303,74.428L 176.846,75.0854L 177.577,75.903L 178.6725,77.7941L 178.8663,78.9221L 178.8971,80.0622L 178.7687,81.1753L 178.4831,82.2258L 178.0444,83.1809L 176.8842,84.8412L 175.5993,85.5372L 173.9659,85.7607L 171.3896,85.3739L 169.8582,83.6935L 169.2698,82.6234Z" style="fill:rgb(1,1,4);"/>
    <path d="M 199,116L 204,116L 206.6719,115.5283L 209.6016,115.2031L 212.7656,115.0518L 216,115L 218.4844,114.9531L 221,115L 222,115L 224,114L 224,107L 221.332,106.334L 220,106L 219,106L 217.5469,106.4102L 214.5625,107.1367L 211.3398,107.6348L 207.7852,107.8887L 203.957,107.9785L 199.9961,107.998L 196,108L 194,108L 193,109L 193,116L 195,116L 197.7936,115.7913Z" style="fill:rgb(1,1,4);"/>
    <path d="M 80,88L 84,88L 86,87L 87,86L 88,84L 88,76L 87,74L 86,73L 84,72L 80,72L 78,73L 77,74L 76,76L 76,84L 77,86L 78,87Z" style="fill:rgb(219,177,119);"/>
    <path d="M 85,132L 80,132L 78,133L 77,134L 76,136L 76,144L 77,146L 78,147L 80,148L 84,148L 86,147L 87,146L 88,144L 88,136L 87,134L 86,133Z" style="fill:rgb(219,177,119);"/>
    <path d="M 172,88L 176,88L 178,87L 179,86L 180,84L 180,76L 179,74L 178,73L 176,72L 172,72L 170,73L 169,74L 168,76L 168,84L 169,86L 170,87Z" style="fill:rgb(219,177,119);"/>
    <path d="M 172,148L 176,148L 178,147L 179,146L 180,144L 180,136L 179,134L 178,133L 176,132L 172,132L 170,133L 169,134L 168,136L 168,144L 169,146L 170,147Z" style="fill:rgb(219,177,119);"/>
    <path d="M 124,56L 40,56L 40,108L 48,108L 48,86L 48.002,82.0039L 48.0127,80.0234L 48.0781,76.1348L 48.3086,72.5L 48.8965,69.3633L 50.0762,66.9531L 52.0352,65.3633L 54.8086,64.5L 58.1729,64.1348L 61.7275,64.0254L 65.2734,64.0234L 68.8438,64.1094L 72.3125,64.3438L 75.4922,64.7539L 77,65L 79,65L 81.4297,64.8594L 83.8184,64.9131L 85,65L 87,65L 88.5078,64.7539L 91.6875,64.3438L 95.2188,64.1094L 99.043,64.0215L 103.0039,64.002L 107,64L 124,64Z" style="fill:rgb(128,173,239);"/>
    <path d="M 124,168L 124,116L 48,116L 48,168L 56,168L 56.1948,166.5596L 56.4303,165.1272L 57.0092,162.2881L 57.8431,159.5364L 58.9854,156.979L 60.4393,154.7517L 62.1776,152.916L 64.1906,151.4148L 66.4893,150.1445L 69,149L 69,145L 68.7271,142.1104L 68.7111,140.6697L 68.7894,139.2458L 68.965,137.8503L 69.5103,135.1368L 69.9735,133.8774L 71.0808,131.4935L 71.8136,130.4521L 72.6366,129.497L 74.4591,127.7636L 75.5315,127.0805L 76.6605,126.502L 79.0009,125.5749L 80.2279,125.3589L 81.462,125.2765L 82.6945,125.325L 85.1374,125.6734L 86.3151,126.0856L 88.5789,127.1202L 89.5944,127.8387L 91.4705,129.466L 92.2457,130.4668L 93.6233,132.6436L 94.6407,135.147L 95.2522,137.8988L 95.4155,140.7603L 95.1912,143.5987L 95,145L 95,149L 96.2256,149.5837L 98.6084,150.8037L 100.8149,152.1841L 101.7964,153.0134L 103.6104,154.8596L 105.1099,157.0762L 106.2771,159.5964L 107.1152,162.302L 107.6543,165.1176L 108,168Z" style="fill:rgb(128,173,239);"/>
    <path d="M 165.4171,68.2673L 167.0896,66.7378L 168,66L 169,65L 169,64L 163,64L 162,64L 132,64L 132,108L 148,108L 148.1621,106.5703L 148.3582,105.1655L 148.5962,103.792L 148.8835,102.4548L 149.228,101.158L 150.0458,98.6509L 150.5949,97.4905L 151.2193,96.3854L 152.6143,94.2998L 154.2958,92.4955L 156.2671,91.0288L 158.5303,89.9022L 161,89L 161,85L 160.7271,82.1104L 160.7111,80.6697L 160.8717,77.8191L 161.4519,75.0601L 162.5232,72.4263L 164.1409,69.9111Z" style="fill:rgb(128,173,239);"/>
    <path d="M 216,108L 216,64L 179,64L 179,65L 180,66L 180.9453,66.7944L 181.854,67.6287L 183.5718,69.4092L 184.3118,70.4328L 185.6421,72.6374L 186.6445,75.1463L 187.2527,77.8987L 187.4155,80.7603L 187.1912,83.5987L 187,85L 187,89L 188.1964,89.4926L 190.5416,90.5694L 192.7508,91.9036L 193.7452,92.7591L 195.5838,94.6792L 197.1006,96.9829L 198.275,99.562L 199.115,102.2934L 199.6543,105.1162L 200,108Z" style="fill:rgb(128,173,239);"/>
    <path d="M 88,204L 86.7959,201.9609L 85.7246,199.8164L 84.896,197.4531L 84.3496,194.8203L 84,192L 16,192L 16,208L 17,208L 17.0469,204.6719L 17.2656,201.2031L 17.9531,197.9531L 19.4609,195.4609L 21.9531,193.9531L 25.2656,193.2656L 29.0469,193.0469L 33.0039,193.0039L 37,193L 63,193L 66.9961,193.0039L 70.9531,193.0469L 74.7344,193.2656L 78.0469,193.9531L 80.543,195.457L 82.0938,197.9063L 83,201L 84,203L 85,205L 88,205Z" style="fill:rgb(61,118,205);"/>
    <path d="M 232,215L 26,215L 26,216L 232,216Z" style="fill:rgb(61,118,205);"/>
    <path d="M 65,101L 64,101L 64,108L 100,108L 100,103L 99,103L 96.8047,104.8047L 94.0938,106.0938L 90.7383,106.7383L 86.9531,106.9531L 85.0996,106.9746L 81.502,106.9941L 77.9199,106.957L 74.2461,106.7734L 70.8613,106.2305L 68.1836,105.0898L 66.3164,103.2734Z" style="fill:rgb(61,118,205);"/>
    <path d="M 95,96L 70,96L 70,97L 95,97Z" style="fill:rgb(61,118,205);"/>
    <path d="M 166,206L 165,206L 163.8203,206.4102L 161.2734,207.1367L 158.2695,207.6348L 154.7773,207.8887L 150.957,207.9785L 146.9961,207.998L 143,208L 113,208L 109.0039,207.998L 105.043,207.9785L 101.2188,207.8906L 97.6875,207.6563L 94.5078,207.2461L 93,207L 90,207L 90,208L 91,209L 165,209L 166,208Z" style="fill:rgb(61,118,205);"/>
    <path d="M 164,198L 164,192L 92,192L 92,198L 93,198L 93.6875,196.9336L 95.4141,195.0703L 97.9492,193.8398L 101.2656,193.2441L 105.0469,193.0449L 109.0039,193.0039L 113,193L 143,193L 146.9961,193.0039L 150.9531,193.0449L 154.7344,193.2441L 158.0508,193.8398L 160.5859,195.0703L 162.3125,196.9336L 163,198Z" style="fill:rgb(61,118,205);"/>
    <path d="M 161,199L 95,199L 95,200L 161,200Z" style="fill:rgb(61,118,205);"/>
    <path d="M 240,208L 240,192L 172,192L 172,200L 173,200L 173.9063,197.3984L 175.457,195.2773L 177.9531,193.9141L 181.2656,193.2617L 185.0469,193.0469L 189.0039,193.0039L 193,193L 219,193L 222.9961,193.0039L 226.9531,193.0469L 230.7344,193.2656L 234.0469,193.9531L 236.5391,195.4609L 238.0469,197.9531L 238.7344,201.2031L 238.9531,204.6719L 239,208Z" style="fill:rgb(61,118,205);"/>
    <path d="M 100,168L 100,161L 98.666,159L 98,158L 96,157L 94,156L 69,156L 67,157L 66,158L 65,159L 64,161L 64,168Z" style="fill:rgb(227,77,49);"/>
    <path d="M 100,103L 100,101L 99,99L 98,98L 97,97L 91,97L 91,101L 91.2656,102.4688L 91.7656,105.4688L 92,107L 99,107L 99.666,104.332Z" style="fill:rgb(24,109,236);"/>
    <path d="M 163,193L 93,193L 93,199L 94,200L 95,200L 96.5078,199.7539L 99.6875,199.3438L 103.2188,199.1094L 107.043,199.0215L 111.0039,199.002L 115,199L 141,199L 144.9961,199.002L 148.957,199.0215L 152.7813,199.1094L 156.3125,199.3438L 159.4922,199.7539L 161,200L 162,200L 163,199Z" style="fill:rgb(24,109,236);"/>
    <path d="M 239,210L 239,193L 232,193L 231.8369,194.4316L 231.6357,195.8418L 231.1357,198.6055L 230.7749,199.9165L 229.9329,202.4414L 228.8699,204.7539L 227.6323,206.8257L 226.2451,208.6523L 224.6797,210.2822L 222.9111,211.8027L 220.9883,213.2734L 220,214L 220,215L 234,215L 236,213.666L 237,213L 238,212Z" style="fill:rgb(24,109,236);"/>
    <path d="M 19,107L 23,107L 24,107L 32,107L 32,104L 28.6445,103.6777L 25.5039,103.248L 24,103L 23,103L 21.668,103.334L 19,104Z" style="fill:rgb(204,222,244);"/>
    <path d="M 19,125L 32,125L 32,122L 19,122Z" style="fill:rgb(204,222,244);"/>
    <path d="M 24,113L 24,116L 32,116L 32,113Z" style="fill:rgb(204,222,244);"/>
    <path d="M 24,130L 24,133L 32,133L 32,130Z" style="fill:rgb(204,222,244);"/>
    <path d="M 24,136L 24,144L 24.334,145.332L 25,148L 26,149L 27,150L 29,150L 30,150L 32,150L 32,136Z" style="fill:rgb(204,222,244);"/>
    <path d="M 232,45L 231,43L 230,42L 229,41L 227,40L 223,40L 223,44L 223.0469,46.4844L 223,49L 223,50L 223.2461,51.5078L 223.6563,54.6875L 223.8906,58.2188L 223.9785,62.043L 223.998,66.0039L 224,70L 224,154L 223.998,157.9961L 223.9785,161.957L 223.8906,165.7813L 223.6563,169.3125L 223.2461,172.4922L 223,174L 223,175L 223.2461,176.4453L 223.6582,179.3945L 223.9121,182.4492L 224,184L 232,184Z" style="fill:rgb(204,222,244);"/>
    <path d="M 24,130L 23,129L 22,128L 18,128L 17,129L 16,130L 16,133L 24,133Z" style="fill:rgb(26,30,35);"/>
    <path d="M 24,118L 24,113L 17,113L 17,115L 18,116L 19.2813,116.4688L 21.7813,117.4688L 23,118Z" style="fill:rgb(26,30,35);"/>
    <path d="M 32,104L 32,107L 33,107L 34,107L 36,107L 37,107L 40,107L 40,104Z" style="fill:rgb(26,30,35);"/>
    <path d="M 32,113L 32,116L 67,116L 67,108L 65.6113,106.1738L 64.4834,104.1074L 64,103L 61.4023,102.6802L 59.0703,102.0186L 57,101L 56,101L 56,107L 56.8706,107.7861L 57.4414,108.8301L 57.6228,110.8188L 55.8716,112.1826L 52.71,112.7598L 48.9512,112.9551L 44.9961,112.9961L 41,113Z" style="fill:rgb(26,30,35);"/>
    <path d="M 32,122L 32,125L 40,125L 40,122Z" style="fill:rgb(26,30,35);"/>
    <path d="M 32,130L 32,133L 40,133L 40,130Z" style="fill:rgb(26,30,35);"/>
    <path d="M 34.5703,143.5859L 33.752,140.7773L 33,138L 32,138L 32,150L 35,150L 35,145Z" style="fill:rgb(26,30,35);"/>
    <path d="M 105,116L 105.1426,114.4883L 105.6309,111.6133L 106.6055,109.125L 108,107L 108,101L 107,101L 105.834,101.4572L 103.5,102.2472L 101.166,102.79L 100,103L 99.7656,104.2656L 99.2656,106.7656L 99,108L 99,116Z" style="fill:rgb(26,30,35);"/>
    <path d="M 111,110L 111,115L 112.9824,115.0098L 114.9194,115.0505L 116.7563,115.1675L 118.4142,115.4295L 121.2471,116.3759L 123.0114,118.326L 123.7772,121.3364L 123.9769,125.0405L 124,127L 125,127.666L 127,129L 129,130L 132,130L 132,126L 131.832,124.8184L 131.8008,122.4473L 132.4785,120.1504L 133.9082,118.166L 135.8984,116.6445L 137,116L 138,115L 138,114L 137,112L 135.5,112L 132.0039,111.9961L 128.043,111.957L 124.2188,111.7813L 120.6875,111.3125L 117.5078,110.4922L 116,110Z" style="fill:rgb(26,30,35);"/>
    <path d="M 124,104L 124,107L 128,107L 129,107L 130,107L 131,107L 132,107L 132,104Z" style="fill:rgb(26,30,35);"/>
    <path d="M 124,134L 124,137L 126.8594,137.3223L 129.6367,137.752L 131,138L 132,138L 132,134L 131,134L 130,134Z" style="fill:rgb(26,30,35);"/>
    <path d="M 124,141L 124,144L 126.668,144.666L 128,145L 132,145L 132,142L 130.7344,141.7656L 128.2344,141.2656L 127,141Z" style="fill:rgb(26,30,35);"/>
    <path d="M 129.1406,148.6777L 126.3633,148.248L 125,148L 124,148L 124,152L 126,152L 127,152L 129,152L 131,152L 132,152L 132,149Z" style="fill:rgb(26,30,35);"/>
    <path d="M 144,108L 144,116L 150,116L 150,104L 149,101L 148,101L 147.1406,103.6484L 145.8086,105.9844Z" style="fill:rgb(26,30,35);"/>
    <path d="M 179.0469,147.4844L 179,150L 179,151L 180,152L 181,152L 182,152L 183,152L 183.2344,150.7344L 183.7344,148.2344L 184,147L 184.0234,143.543L 184.1309,140.0977L 184.4531,136.7266L 185.0977,133.6875L 186,131L 186,130L 185,129L 184,128L 183,127L 181,127L 180.9121,128.8242L 180.6582,132.3164L 180.2461,135.4922L 180,137L 179.6777,139.8594L 179.248,142.6367L 179,144L 179,145Z" style="fill:rgb(26,30,35);"/>
    <path d="M 182,111L 182,116L 186,116L 186,111Z" style="fill:rgb(26,30,35);"/>
    <path d="M 187,108L 187,110L 187.0469,112.4844L 187,115L 187,116L 193,116L 193.4961,113.3105L 194.4473,111.0215L 196.1621,109.3906L 198.6172,108.3789L 200,108L 200,105L 198.8359,104.8242L 196.5,104.3164L 194.1641,103.4922L 193,103L 192,103L 191.4043,104.0703L 189.9746,105.9746L 188.0703,107.4043Z" style="fill:rgb(26,30,35);"/>
    <path d="M 193,150L 190,149L 187,149L 187,150L 188,153L 193,153L 194,152L 194,151Z" style="fill:rgb(26,30,35);"/>
    <path d="M 195,111L 195,116L 199,116L 199,111Z" style="fill:rgb(26,30,35);"/>
    <path d="M 207.7383,116.2617L 211.0469,116.9531L 213.5391,118.4609L 215.0469,120.9531L 215.7344,124.2656L 215.9531,128.0469L 215.9961,132.0039L 216,136L 216,153L 221,153L 221,137L 221.0029,133.0039L 221.0352,129.0469L 221.1963,125.2617L 221.6797,121.9063L 222.6465,119.1953L 224,117L 224,114L 222,114L 221,114L 216,114L 213.3535,114.3438L 210.7539,114.4307L 208.2363,114.1924L 207,114L 205,114L 204,115L 204,116Z" style="fill:rgb(26,30,35);"/>
    <path d="M 221.1406,103.6777L 218.3633,103.248L 217,103L 216,103L 216,107L 219,107L 220,107L 224,107L 224,104Z" style="fill:rgb(26,30,35);"/>
    <path d="M 234,147L 233.7539,145.4922L 233.3438,142.3125L 233.1094,138.7813L 233.0195,134.9609L 233,133L 232,133L 232,153L 233,153L 234,152Z" style="fill:rgb(26,30,35);"/>
    <path d="M 192,168L 192,162L 191,160L 190,158L 188,157L 186,156L 162,156L 160,157L 158,158L 157,159L 156,162L 156,168Z" style="fill:rgb(48,83,137);"/>
    <path d="M 29,40L 27,41L 26,42L 25,43L 24,45L 24,78L 23.998,81.9961L 23.9873,83.9766L 23.9219,87.8652L 23.6953,91.502L 23.1475,94.6602L 22.1592,97.1816L 20.7734,99.1367L 20,100L 20,104L 23,104L 24,104L 32,104L 32,70L 32.002,66.0039L 32.0127,64.0234L 32.0781,60.1348L 32.3086,56.5L 32.8965,53.3633L 34.0762,50.9531L 36.0352,49.3633L 38.8086,48.5L 42.2354,48.1348L 46.0439,48.0234L 50.0039,48.002L 54,48L 202,48L 205.9961,48.002L 209.957,48.0215L 213.7813,48.1094L 217.3125,48.3438L 220.4922,48.7539L 222,49L 224,49L 224,44L 223.666,42.668L 223,40Z" style="fill:rgb(224,236,252);"/>
    <path d="M 24,113L 32,113L 32,107L 28.6445,106.6777L 25.5039,106.248L 24,106L 23,106L 20,107L 20,108L 20.8545,108.8909L 22.4883,110.8232Z" style="fill:rgb(224,236,252);"/>
    <path d="M 22.4629,117.6777L 20.8389,119.248L 20,120L 20,122L 32,122L 32,116L 24,116Z" style="fill:rgb(224,236,252);"/>
    <path d="M 23,130L 32,130L 32,125L 20,125L 20,128L 21,128.666Z" style="fill:rgb(224,236,252);"/>
    <path d="M 24,133L 24,136L 32,136L 32,133Z" style="fill:rgb(224,236,252);"/>
    <path d="M 222,175L 220.4922,175.2461L 217.3125,175.6563L 213.7813,175.8906L 209.957,175.9785L 205.9961,175.998L 202,176L 54,176L 50.0039,175.998L 48.0234,175.9873L 44.1348,175.9219L 40.5,175.6914L 37.3633,175.1035L 34.9531,173.9238L 33.3633,171.9648L 32.5,169.1914L 32.1348,165.7646L 32.0234,161.9561L 32.002,157.9961L 32,154L 32,150L 29.9785,148.9648L 28.0176,147.7285L 26.3496,146.0625L 25,144L 24,144L 24,184L 224,184L 224,175Z" style="fill:rgb(224,236,252);"/>
    <path d="M 192,101L 191,99L 190,98L 189,97L 187,96L 161,96L 159,97L 158,98L 157,99L 156,101L 156,108L 192,108Z" style="fill:rgb(232,155,53);"/>
    <path d="M 171.4468,198.0273L 170.3862,199.9922L 169.7361,200.9961L 168.356,202.9863L 166.8203,204.8867L 165.0803,206.543L 162.9363,207.7793L 160.1602,208.5254L 156.7559,208.8672L 152.9551,208.9766L 148.9961,208.998L 145,209L 111,209L 107.0039,208.998L 103.0469,208.9727L 99.2617,208.8301L 95.9063,208.3672L 93.1953,207.3945L 91,206L 88.9009,204.7832L 86.9165,203.3564L 85.252,201.5449L 84.0806,199.208L 83.394,196.3008L 83,193L 17,193L 17,210L 18,212L 19,213L 20,214L 22,215L 24,216L 26,216L 27.5078,215.7539L 30.6875,215.3438L 34.2188,215.1094L 38.043,215.0215L 42.0039,215.002L 46,215L 220,215L 222,214L 223,213.2344L 225,211.7344L 226,211L 227,210L 227.666,209L 229,207L 229.666,206L 231,204L 231.666,201.332L 232,200L 232,193L 173,193L 172.3228,195.7031L 171.1409,198.5313Z" style="fill:rgb(51,127,238);"/>
    <path d="M 70,96L 69,96L 67,97L 66,98L 65,99L 65,105L 66,107L 92,107L 92,101L 91.666,99.668L 91,97L 89.5,97L 86.0039,96.998L 82.043,96.9785L 78.2188,96.8906L 74.6875,96.6563L 71.5078,96.2461Z" style="fill:rgb(51,127,238);"/>
    <path d="M 69,89L 69,85L 68.7271,82.1104L 68.7111,80.6697L 68.7894,79.2458L 68.965,77.8503L 69.5103,75.1368L 70.4367,72.618L 71.7168,70.3671L 73.2941,68.4304L 75.0739,66.7718L 76,66L 77,65L 77,64L 50,64L 49,65L 48,66L 48,108L 56,108L 56.1621,106.5703L 56.3582,105.1655L 56.5962,103.792L 56.8835,102.4548L 57.228,101.158L 58.0458,98.6509L 58.5949,97.4905L 59.2193,96.3854L 60.6143,94.2998L 62.2958,92.4955L 64.2671,91.0288L 66.5303,89.9022Z" style="fill:rgb(145,183,239);"/>
    <path d="M 108,108L 124,108L 124,64L 87,64L 87,65L 88,66L 88.9453,66.7944L 89.854,67.6287L 91.5718,69.4092L 92.3118,70.4328L 93.6421,72.6374L 94.6445,75.1463L 95.2527,77.8987L 95.4155,80.7603L 95.1912,83.5987L 95,85L 95,89L 97.3908,89.9832L 98.5338,90.5577L 99.6286,91.1975L 101.7022,92.6106L 103.5047,94.2955L 104.9707,96.2651L 106.0826,98.5269L 106.8855,101.0454L 107.4477,103.7486L 107.6768,105.1368Z" style="fill:rgb(145,183,239);"/>
    <path d="M 200,168L 216,168L 216,116L 132,116L 132,168L 148,168L 148.1948,166.5596L 148.4303,165.1272L 148.7197,163.7067L 149.0729,162.3036L 149.9203,159.5485L 150.492,158.2432L 151.1381,156.9989L 152.5715,154.6602L 154.2786,152.6694L 156.262,151.0953L 158.5292,149.9209L 161,149L 161,145L 160.7271,142.1104L 160.7111,140.6697L 160.7894,139.2458L 160.965,137.8503L 161.5103,135.1368L 161.9735,133.8774L 163.0808,131.4935L 163.8136,130.4521L 164.6366,129.497L 166.4591,127.7636L 167.5315,127.0805L 168.6605,126.502L 171.0009,125.5769L 172.2289,125.3687L 173.4659,125.3024L 174.7033,125.3741L 177.1579,125.7745L 178.3408,126.2079L 179.4752,126.7339L 181.6207,127.954L 183.4731,129.4964L 184.2181,130.4296L 184.872,131.4467L 186.0108,133.6329L 186.827,136.0753L 187.3154,138.657L 187.4286,141.2464L 187.1924,143.7637L 187,145L 187,149L 188.3646,149.6334L 189.6865,150.3018L 190.9472,151.0137L 193.3144,152.5352L 195.3223,154.2704L 196.9024,156.2587L 198.0632,158.5257L 198.8815,161.0452L 199.4472,163.7486L 199.6767,165.1368Z" style="fill:rgb(145,183,239);"/>
</svg>